<svg width="799" height="80" viewBox="0 0 799 80" fill="none" xmlns="http://www.w3.org/2000/svg">
<path d="M32.2188 27.8438L30.6562 33.625H1.28125L2.875 27.8438H32.2188ZM17.5938 62L2.1875 43.8125L2.15625 38.8125H9.59375C11.4062 38.8125 12.8958 38.4792 14.0625 37.8125C15.25 37.125 16.1354 36.1979 16.7188 35.0312C17.3229 33.8646 17.625 32.5521 17.625 31.0938C17.625 29.5729 17.3542 28.2292 16.8125 27.0625C16.2708 25.875 15.4062 24.9479 14.2188 24.2812C13.0312 23.6146 11.4583 23.2812 9.5 23.2812H1.3125L3.09375 16.5H9.5C13.2083 16.5 16.2917 17.0625 18.75 18.1875C21.2292 19.2917 23.0833 20.9062 24.3125 23.0312C25.5625 25.1354 26.1875 27.6771 26.1875 30.6562C26.1875 33.2604 25.75 35.5625 24.875 37.5625C24.0208 39.5417 22.6354 41.1562 20.7188 42.4062C18.8021 43.6562 16.2812 44.4896 13.1562 44.9062L27.125 61.5625V62H17.5938ZM32.25 16.5L30.6562 22.2812H6.5L8.09375 16.5H32.25ZM72.7513 16.375V62H64.47V26.0312L53.5013 29.6562V22.9688L71.8138 16.375H72.7513ZM117.611 49.5625C117.611 52.3958 116.945 54.7917 115.611 56.75C114.299 58.6875 112.497 60.1562 110.205 61.1562C107.934 62.1354 105.351 62.625 102.455 62.625C99.58 62.625 96.9863 62.1354 94.6738 61.1562C92.3821 60.1562 90.5592 58.6875 89.205 56.75C87.8717 54.7917 87.205 52.3958 87.205 49.5625C87.205 47.6667 87.58 45.9479 88.33 44.4062C89.1008 42.8646 90.1633 41.5417 91.5175 40.4375C92.8717 39.3125 94.4758 38.4583 96.33 37.875C98.1842 37.2708 100.205 36.9688 102.393 36.9688C105.309 36.9688 107.913 37.5 110.205 38.5625C112.518 39.6042 114.33 41.0729 115.643 42.9688C116.955 44.8438 117.611 47.0417 117.611 49.5625ZM109.299 49.0625C109.299 47.6042 109.007 46.3438 108.424 45.2812C107.861 44.1979 107.059 43.3646 106.018 42.7812C104.976 42.1979 103.768 41.9062 102.393 41.9062C100.997 41.9062 99.7779 42.1979 98.7363 42.7812C97.7154 43.3646 96.9133 44.1979 96.33 45.2812C95.7675 46.3438 95.4863 47.6042 95.4863 49.0625C95.4863 50.5417 95.7675 51.8125 96.33 52.875C96.9133 53.9167 97.7258 54.7188 98.7675 55.2812C99.8092 55.8438 101.038 56.125 102.455 56.125C103.872 56.125 105.09 55.8438 106.111 55.2812C107.132 54.7188 107.913 53.9167 108.455 52.875C109.018 51.8125 109.299 50.5417 109.299 49.0625ZM116.611 28.5C116.611 30.7917 116.007 32.8333 114.799 34.625C113.59 36.3958 111.913 37.7812 109.768 38.7812C107.643 39.7812 105.205 40.2812 102.455 40.2812C99.705 40.2812 97.2467 39.7812 95.08 38.7812C92.9342 37.7812 91.2467 36.3958 90.0175 34.625C88.8092 32.8333 88.205 30.7917 88.205 28.5C88.205 25.7917 88.8196 23.5 90.0488 21.625C91.2779 19.7292 92.955 18.2917 95.08 17.3125C97.2258 16.3333 99.6633 15.8438 102.393 15.8438C105.163 15.8438 107.622 16.3333 109.768 17.3125C111.913 18.2917 113.59 19.7292 114.799 21.625C116.007 23.5 116.611 25.7917 116.611 28.5ZM108.361 28.8438C108.361 27.5521 108.122 26.4271 107.643 25.4688C107.163 24.4896 106.476 23.7292 105.58 23.1875C104.705 22.6458 103.643 22.375 102.393 22.375C101.184 22.375 100.143 22.6354 99.2675 23.1562C98.3925 23.6771 97.7154 24.4271 97.2363 25.4062C96.7571 26.3646 96.5175 27.5104 96.5175 28.8438C96.5175 30.1562 96.7571 31.3021 97.2363 32.2812C97.7154 33.2604 98.3925 34.0312 99.2675 34.5938C100.163 35.1354 101.226 35.4062 102.455 35.4062C103.684 35.4062 104.736 35.1354 105.611 34.5938C106.486 34.0312 107.163 33.2604 107.643 32.2812C108.122 31.3021 108.361 30.1562 108.361 28.8438ZM131.565 54.5625L131.503 60.2812C131.503 62.5104 130.95 64.7708 129.846 67.0625C128.742 69.3542 127.315 71.25 125.565 72.75L121.19 70.3438C121.753 69.4062 122.273 68.4583 122.753 67.5C123.253 66.5417 123.648 65.5 123.94 64.375C124.253 63.2708 124.409 62.0312 124.409 60.6562V54.5625H131.565ZM145.956 41.0625L139.363 39.4688L141.894 16.5H166.925V23.3438H148.738L147.55 33.9688C148.196 33.5729 149.133 33.1771 150.363 32.7812C151.613 32.3646 153.019 32.1562 154.581 32.1562C156.748 32.1562 158.685 32.5104 160.394 33.2188C162.102 33.9062 163.55 34.9062 164.738 36.2188C165.946 37.5312 166.852 39.1354 167.456 41.0312C168.081 42.9062 168.394 45.0312 168.394 47.4062C168.394 49.4896 168.081 51.4479 167.456 53.2812C166.852 55.0938 165.925 56.7083 164.675 58.125C163.425 59.5208 161.852 60.625 159.956 61.4375C158.06 62.2292 155.831 62.625 153.269 62.625C151.331 62.625 149.467 62.3438 147.675 61.7812C145.904 61.1979 144.31 60.3542 142.894 59.25C141.477 58.125 140.342 56.75 139.488 55.125C138.654 53.5 138.196 51.6354 138.113 49.5312H146.269C146.415 50.9271 146.79 52.1146 147.394 53.0938C147.998 54.0729 148.79 54.8229 149.769 55.3438C150.769 55.8646 151.925 56.125 153.238 56.125C154.425 56.125 155.446 55.9062 156.3 55.4688C157.175 55.0104 157.894 54.375 158.456 53.5625C159.019 52.75 159.435 51.7917 159.706 50.6875C159.977 49.5833 160.113 48.375 160.113 47.0625C160.113 45.7917 159.956 44.6354 159.644 43.5938C159.331 42.5312 158.852 41.6146 158.206 40.8438C157.56 40.0729 156.748 39.4792 155.769 39.0625C154.81 38.6458 153.685 38.4375 152.394 38.4375C150.665 38.4375 149.331 38.6979 148.394 39.2188C147.477 39.7396 146.665 40.3542 145.956 41.0625ZM203.816 35.3438V43C203.816 46.5 203.462 49.4896 202.754 51.9688C202.045 54.4479 201.025 56.4792 199.691 58.0625C198.358 59.625 196.764 60.7812 194.91 61.5312C193.056 62.2604 190.993 62.625 188.723 62.625C186.91 62.625 185.223 62.3958 183.66 61.9375C182.098 61.4583 180.691 60.7292 179.441 59.75C178.212 58.75 177.15 57.4792 176.254 55.9375C175.379 54.3958 174.702 52.5521 174.223 50.4062C173.764 48.2604 173.535 45.7917 173.535 43V35.3438C173.535 31.8438 173.889 28.8646 174.598 26.4062C175.327 23.9479 176.358 21.9375 177.691 20.375C179.025 18.8125 180.618 17.6771 182.473 16.9688C184.327 16.2396 186.389 15.875 188.66 15.875C190.493 15.875 192.181 16.1042 193.723 16.5625C195.285 17.0208 196.681 17.7396 197.91 18.7188C199.16 19.6771 200.223 20.9271 201.098 22.4688C201.973 23.9896 202.639 25.8229 203.098 27.9688C203.577 30.0938 203.816 32.5521 203.816 35.3438ZM195.566 44.125V34.1875C195.566 32.4375 195.462 30.9167 195.254 29.625C195.066 28.3125 194.785 27.1979 194.41 26.2812C194.035 25.3646 193.566 24.625 193.004 24.0625C192.441 23.4792 191.795 23.0521 191.066 22.7812C190.337 22.5104 189.535 22.375 188.66 22.375C187.577 22.375 186.608 22.5938 185.754 23.0312C184.9 23.4479 184.181 24.1146 183.598 25.0312C183.014 25.9479 182.566 27.1667 182.254 28.6875C181.962 30.1875 181.816 32.0208 181.816 34.1875V44.125C181.816 45.875 181.91 47.4062 182.098 48.7188C182.306 50.0312 182.598 51.1562 182.973 52.0938C183.368 53.0312 183.837 53.8021 184.379 54.4062C184.941 54.9896 185.587 55.4271 186.316 55.7188C187.045 55.9896 187.848 56.125 188.723 56.125C189.827 56.125 190.795 55.9062 191.629 55.4688C192.483 55.0312 193.202 54.3438 193.785 53.4062C194.368 52.4479 194.806 51.2083 195.098 49.6875C195.41 48.1458 195.566 46.2917 195.566 44.125ZM239.739 35.3438V43C239.739 46.5 239.385 49.4896 238.676 51.9688C237.968 54.4479 236.947 56.4792 235.614 58.0625C234.28 59.625 232.687 60.7812 230.833 61.5312C228.978 62.2604 226.916 62.625 224.645 62.625C222.833 62.625 221.145 62.3958 219.583 61.9375C218.02 61.4583 216.614 60.7292 215.364 59.75C214.135 58.75 213.072 57.4792 212.176 55.9375C211.301 54.3958 210.624 52.5521 210.145 50.4062C209.687 48.2604 209.458 45.7917 209.458 43V35.3438C209.458 31.8438 209.812 28.8646 210.52 26.4062C211.249 23.9479 212.28 21.9375 213.614 20.375C214.947 18.8125 216.541 17.6771 218.395 16.9688C220.249 16.2396 222.312 15.875 224.583 15.875C226.416 15.875 228.103 16.1042 229.645 16.5625C231.208 17.0208 232.603 17.7396 233.833 18.7188C235.083 19.6771 236.145 20.9271 237.02 22.4688C237.895 23.9896 238.562 25.8229 239.02 27.9688C239.499 30.0938 239.739 32.5521 239.739 35.3438ZM231.489 44.125V34.1875C231.489 32.4375 231.385 30.9167 231.176 29.625C230.989 28.3125 230.708 27.1979 230.333 26.2812C229.958 25.3646 229.489 24.625 228.926 24.0625C228.364 23.4792 227.718 23.0521 226.989 22.7812C226.26 22.5104 225.458 22.375 224.583 22.375C223.499 22.375 222.53 22.5938 221.676 23.0312C220.822 23.4479 220.103 24.1146 219.52 25.0312C218.937 25.9479 218.489 27.1667 218.176 28.6875C217.885 30.1875 217.739 32.0208 217.739 34.1875V44.125C217.739 45.875 217.833 47.4062 218.02 48.7188C218.228 50.0312 218.52 51.1562 218.895 52.0938C219.291 53.0312 219.76 53.8021 220.301 54.4062C220.864 54.9896 221.51 55.4271 222.239 55.7188C222.968 55.9896 223.77 56.125 224.645 56.125C225.749 56.125 226.718 55.9062 227.551 55.4688C228.405 55.0312 229.124 54.3438 229.708 53.4062C230.291 52.4479 230.728 51.2083 231.02 49.6875C231.333 48.1458 231.489 46.2917 231.489 44.125Z" fill="white"/>
<rect x="54" y="37" width="191" height="8" fill="#FF0000"/>
<path d="M260.568 56.432C260.568 54.5653 261.091 52.9413 262.136 51.56C263.219 50.1413 264.693 49.0587 266.56 48.312C268.427 47.528 270.592 47.136 273.056 47.136C274.363 47.136 275.688 47.2293 277.032 47.416C278.413 47.6027 279.627 47.9013 280.672 48.312V46.464C280.672 44.4107 280.056 42.8053 278.824 41.648C277.592 40.4907 275.819 39.912 273.504 39.912C271.861 39.912 270.312 40.2107 268.856 40.808C267.4 41.368 265.851 42.1707 264.208 43.216L262.136 39.072C264.077 37.7653 266.019 36.7947 267.96 36.16C269.939 35.5253 272.011 35.208 274.176 35.208C278.096 35.208 281.176 36.2533 283.416 38.344C285.693 40.3973 286.832 43.328 286.832 47.136V58.056C286.832 58.7653 286.944 59.2693 287.168 59.568C287.429 59.8667 287.859 60.0347 288.456 60.072V65C287.896 65.112 287.392 65.1867 286.944 65.224C286.496 65.2613 286.123 65.28 285.824 65.28C284.517 65.28 283.528 64.9627 282.856 64.328C282.184 63.6933 281.792 62.9467 281.68 62.088L281.512 60.408C280.243 62.0507 278.619 63.32 276.64 64.216C274.661 65.112 272.664 65.56 270.648 65.56C268.707 65.56 266.971 65.168 265.44 64.384C263.909 63.5627 262.715 62.4613 261.856 61.08C260.997 59.6987 260.568 58.1493 260.568 56.432ZM279.216 58.224C279.664 57.7387 280.019 57.2533 280.28 56.768C280.541 56.2827 280.672 55.8533 280.672 55.48V52.12C279.627 51.7093 278.525 51.4107 277.368 51.224C276.211 51 275.072 50.888 273.952 50.888C271.712 50.888 269.883 51.336 268.464 52.232C267.083 53.128 266.392 54.36 266.392 55.928C266.392 56.7867 266.616 57.608 267.064 58.392C267.549 59.176 268.221 59.8107 269.08 60.296C269.976 60.7813 271.077 61.024 272.384 61.024C273.728 61.024 275.016 60.7627 276.248 60.24C277.48 59.7173 278.469 59.0453 279.216 58.224ZM309.823 63.488C309.3 63.7493 308.647 64.0293 307.863 64.328C307.079 64.6267 306.183 64.888 305.175 65.112C304.204 65.336 303.196 65.448 302.151 65.448C300.881 65.448 299.705 65.224 298.623 64.776C297.54 64.328 296.663 63.6187 295.991 62.648C295.356 61.64 295.039 60.352 295.039 58.784V40.472H291.175V35.712H295.039V26.08H301.199V35.712H307.583V40.472H301.199V56.824C301.273 57.832 301.591 58.5787 302.151 59.064C302.748 59.5493 303.476 59.792 304.335 59.792C305.193 59.792 306.015 59.6427 306.799 59.344C307.583 59.0453 308.161 58.8027 308.535 58.616L309.823 63.488ZM323.725 75.696C322.381 75.696 321.112 75.4907 319.917 75.08C318.685 74.6693 317.602 74.0347 316.669 73.176L319.413 69.032C319.861 69.48 320.421 69.7973 321.093 69.984C321.728 70.208 322.362 70.32 322.997 70.32C323.744 70.32 324.416 70.1333 325.013 69.76C325.648 69.3867 326.152 68.864 326.525 68.192C326.936 67.5573 327.141 66.848 327.141 66.064V35.712H333.301V65.616C333.301 67.5573 332.853 69.2933 331.957 70.824C331.098 72.3547 329.941 73.5493 328.485 74.408C327.066 75.2667 325.48 75.696 323.725 75.696ZM327.141 30.896V24.12H333.301V30.896H327.141ZM339.856 53.632V35.712H346.016V52.4C346.016 55.0133 346.482 56.992 347.416 58.336C348.386 59.6427 349.786 60.296 351.616 60.296C352.773 60.296 353.893 60.0533 354.976 59.568C356.096 59.0827 357.104 58.3733 358 57.44C358.933 56.4693 359.68 55.312 360.24 53.968V35.712H366.4V58.056C366.4 58.7653 366.53 59.2693 366.792 59.568C367.053 59.8667 367.482 60.0347 368.08 60.072V65C367.445 65.112 366.922 65.1867 366.512 65.224C366.101 65.2613 365.709 65.28 365.336 65.28C364.216 65.28 363.282 64.9813 362.536 64.384C361.789 63.7493 361.36 62.9467 361.248 61.976L361.136 59.064C359.829 61.192 358.13 62.816 356.04 63.936C353.949 65.0187 351.653 65.56 349.152 65.56C346.09 65.56 343.776 64.552 342.208 62.536C340.64 60.52 339.856 57.552 339.856 53.632ZM384.117 65.56C381.653 65.56 379.319 65.168 377.117 64.384C374.914 63.5627 373.029 62.3493 371.461 60.744L373.757 56.6C375.437 58.0933 377.117 59.176 378.797 59.848C380.514 60.52 382.213 60.856 383.893 60.856C385.61 60.856 387.01 60.5387 388.093 59.904C389.175 59.232 389.717 58.2613 389.717 56.992C389.717 56.0587 389.437 55.368 388.877 54.92C388.317 54.472 387.495 54.08 386.413 53.744C385.367 53.408 384.098 53.0347 382.605 52.624C380.514 51.9893 378.759 51.336 377.341 50.664C375.922 49.9547 374.858 49.096 374.149 48.088C373.439 47.08 373.085 45.792 373.085 44.224C373.085 42.32 373.57 40.696 374.541 39.352C375.511 38.008 376.855 36.9813 378.573 36.272C380.327 35.5627 382.343 35.208 384.621 35.208C386.749 35.208 388.709 35.544 390.501 36.216C392.33 36.8507 393.935 37.8587 395.317 39.24L392.685 43.328C391.378 42.1333 390.034 41.256 388.653 40.696C387.309 40.136 385.853 39.856 384.285 39.856C383.389 39.856 382.53 39.968 381.709 40.192C380.887 40.3787 380.197 40.752 379.637 41.312C379.114 41.8347 378.853 42.5813 378.853 43.552C378.853 44.336 379.077 44.9707 379.525 45.456C379.973 45.9413 380.645 46.352 381.541 46.688C382.437 47.024 383.538 47.3973 384.845 47.808C387.122 48.48 389.063 49.152 390.669 49.824C392.274 50.4587 393.506 51.2987 394.365 52.344C395.261 53.352 395.709 54.752 395.709 56.544C395.709 59.3813 394.645 61.6027 392.517 63.208C390.426 64.776 387.626 65.56 384.117 65.56ZM416.89 63.488C416.367 63.7493 415.714 64.0293 414.93 64.328C414.146 64.6267 413.25 64.888 412.242 65.112C411.271 65.336 410.263 65.448 409.218 65.448C407.948 65.448 406.772 65.224 405.69 64.776C404.607 64.328 403.73 63.6187 403.058 62.648C402.423 61.64 402.106 60.352 402.106 58.784V40.472H398.242V35.712H402.106V26.08H408.266V35.712H414.65V40.472H408.266V56.824C408.34 57.832 408.658 58.5787 409.218 59.064C409.815 59.5493 410.543 59.792 411.402 59.792C412.26 59.792 413.082 59.6427 413.866 59.344C414.65 59.0453 415.228 58.8027 415.602 58.616L416.89 63.488Z" fill="white"/>
<path d="M466.219 27.8438L464.656 33.625H435.281L436.875 27.8438H466.219ZM451.594 62L436.188 43.8125L436.156 38.8125H443.594C445.406 38.8125 446.896 38.4792 448.062 37.8125C449.25 37.125 450.135 36.1979 450.719 35.0312C451.323 33.8646 451.625 32.5521 451.625 31.0938C451.625 29.5729 451.354 28.2292 450.812 27.0625C450.271 25.875 449.406 24.9479 448.219 24.2812C447.031 23.6146 445.458 23.2812 443.5 23.2812H435.312L437.094 16.5H443.5C447.208 16.5 450.292 17.0625 452.75 18.1875C455.229 19.2917 457.083 20.9062 458.312 23.0312C459.562 25.1354 460.188 27.6771 460.188 30.6562C460.188 33.2604 459.75 35.5625 458.875 37.5625C458.021 39.5417 456.635 41.1562 454.719 42.4062C452.802 43.6562 450.281 44.4896 447.156 44.9062L461.125 61.5625V62H451.594ZM466.25 16.5L464.656 22.2812H440.5L442.094 16.5H466.25ZM491.72 55.5938H492.314C495.001 55.5938 497.272 55.25 499.126 54.5625C501.001 53.875 502.512 52.9062 503.658 51.6562C504.824 50.3854 505.668 48.875 506.189 47.125C506.73 45.3542 507.001 43.3958 507.001 41.25V33C507.001 31.25 506.824 29.7188 506.47 28.4062C506.116 27.0729 505.616 25.9583 504.97 25.0625C504.345 24.1667 503.605 23.5 502.751 23.0625C501.897 22.6042 500.98 22.375 500.001 22.375C498.918 22.375 497.96 22.625 497.126 23.125C496.293 23.625 495.585 24.3125 495.001 25.1875C494.439 26.0417 494.001 27.0312 493.689 28.1562C493.397 29.2812 493.251 30.4688 493.251 31.7188C493.251 32.9271 493.387 34.0833 493.658 35.1875C493.949 36.2917 494.376 37.2708 494.939 38.125C495.522 38.9792 496.251 39.6562 497.126 40.1562C498.001 40.6354 499.022 40.875 500.189 40.875C501.293 40.875 502.293 40.6667 503.189 40.25C504.105 39.8125 504.897 39.2396 505.564 38.5312C506.23 37.8021 506.741 37 507.095 36.125C507.47 35.2292 507.678 34.3229 507.72 33.4062L510.626 34.6562C510.626 36.1771 510.303 37.6771 509.658 39.1562C509.033 40.6354 508.147 41.9792 507.001 43.1875C505.876 44.375 504.564 45.3333 503.064 46.0625C501.564 46.7708 499.949 47.125 498.22 47.125C496.074 47.125 494.178 46.7292 492.533 45.9375C490.887 45.1458 489.501 44.0521 488.376 42.6562C487.272 41.2396 486.439 39.6146 485.876 37.7812C485.314 35.9271 485.033 33.9479 485.033 31.8438C485.033 29.6562 485.376 27.6042 486.064 25.6875C486.751 23.75 487.741 22.0521 489.033 20.5938C490.345 19.1146 491.928 17.9583 493.783 17.125C495.637 16.2708 497.72 15.8438 500.033 15.8438C502.428 15.8438 504.564 16.3125 506.439 17.25C508.314 18.1875 509.908 19.4896 511.22 21.1562C512.533 22.8021 513.533 24.75 514.22 27C514.928 29.25 515.283 31.7083 515.283 34.375V37.2812C515.283 40.0938 515.001 42.7604 514.439 45.2812C513.876 47.8021 513.012 50.1042 511.845 52.1875C510.678 54.2708 509.189 56.0729 507.376 57.5938C505.585 59.1146 503.439 60.2917 500.939 61.125C498.46 61.9375 495.626 62.3438 492.439 62.3438H491.72V55.5938ZM527.643 55.5938H528.236C530.924 55.5938 533.195 55.25 535.049 54.5625C536.924 53.875 538.434 52.9062 539.58 51.6562C540.747 50.3854 541.59 48.875 542.111 47.125C542.653 45.3542 542.924 43.3958 542.924 41.25V33C542.924 31.25 542.747 29.7188 542.393 28.4062C542.038 27.0729 541.538 25.9583 540.893 25.0625C540.268 24.1667 539.528 23.5 538.674 23.0625C537.82 22.6042 536.903 22.375 535.924 22.375C534.84 22.375 533.882 22.625 533.049 23.125C532.215 23.625 531.507 24.3125 530.924 25.1875C530.361 26.0417 529.924 27.0312 529.611 28.1562C529.32 29.2812 529.174 30.4688 529.174 31.7188C529.174 32.9271 529.309 34.0833 529.58 35.1875C529.872 36.2917 530.299 37.2708 530.861 38.125C531.445 38.9792 532.174 39.6562 533.049 40.1562C533.924 40.6354 534.945 40.875 536.111 40.875C537.215 40.875 538.215 40.6667 539.111 40.25C540.028 39.8125 540.82 39.2396 541.486 38.5312C542.153 37.8021 542.663 37 543.018 36.125C543.393 35.2292 543.601 34.3229 543.643 33.4062L546.549 34.6562C546.549 36.1771 546.226 37.6771 545.58 39.1562C544.955 40.6354 544.07 41.9792 542.924 43.1875C541.799 44.375 540.486 45.3333 538.986 46.0625C537.486 46.7708 535.872 47.125 534.143 47.125C531.997 47.125 530.101 46.7292 528.455 45.9375C526.809 45.1458 525.424 44.0521 524.299 42.6562C523.195 41.2396 522.361 39.6146 521.799 37.7812C521.236 35.9271 520.955 33.9479 520.955 31.8438C520.955 29.6562 521.299 27.6042 521.986 25.6875C522.674 23.75 523.663 22.0521 524.955 20.5938C526.268 19.1146 527.851 17.9583 529.705 17.125C531.559 16.2708 533.643 15.8438 535.955 15.8438C538.351 15.8438 540.486 16.3125 542.361 17.25C544.236 18.1875 545.83 19.4896 547.143 21.1562C548.455 22.8021 549.455 24.75 550.143 27C550.851 29.25 551.205 31.7083 551.205 34.375V37.2812C551.205 40.0938 550.924 42.7604 550.361 45.2812C549.799 47.8021 548.934 50.1042 547.768 52.1875C546.601 54.2708 545.111 56.0729 543.299 57.5938C541.507 59.1146 539.361 60.2917 536.861 61.125C534.382 61.9375 531.549 62.3438 528.361 62.3438H527.643V55.5938Z" fill="#0096FF"/>
<path d="M591.328 65.56C588.976 65.56 586.904 65 585.112 63.88C583.32 62.76 581.901 61.304 580.856 59.512V76.928H574.696V35.712H580.128V40.976C581.248 39.2213 582.704 37.8213 584.496 36.776C586.288 35.7307 588.285 35.208 590.488 35.208C592.504 35.208 594.352 35.6187 596.032 36.44C597.712 37.224 599.168 38.3253 600.4 39.744C601.632 41.1627 602.584 42.7867 603.256 44.616C603.965 46.408 604.32 48.312 604.32 50.328C604.32 53.128 603.76 55.6853 602.64 58C601.557 60.3147 600.027 62.1627 598.048 63.544C596.107 64.888 593.867 65.56 591.328 65.56ZM589.312 60.296C590.619 60.296 591.795 60.016 592.84 59.456C593.923 58.896 594.837 58.1493 595.584 57.216C596.368 56.2827 596.965 55.2187 597.376 54.024C597.787 52.8293 597.992 51.5973 597.992 50.328C597.992 48.984 597.768 47.7147 597.32 46.52C596.872 45.3253 596.219 44.28 595.36 43.384C594.539 42.488 593.568 41.7787 592.448 41.256C591.365 40.7333 590.171 40.472 588.864 40.472C588.08 40.472 587.259 40.6213 586.4 40.92C585.541 41.2187 584.739 41.6293 583.992 42.152C583.245 42.6747 582.592 43.2907 582.032 44C581.472 44.7093 581.08 45.456 580.856 46.24V53.912C581.379 55.1067 582.069 56.1893 582.928 57.16C583.787 58.0933 584.776 58.8587 585.896 59.456C587.016 60.016 588.155 60.296 589.312 60.296ZM622.572 65.56C620.295 65.56 618.223 65.168 616.356 64.384C614.527 63.5627 612.94 62.4613 611.596 61.08C610.252 59.6613 609.207 58.056 608.46 56.264C607.751 54.4347 607.396 52.4933 607.396 50.44C607.396 47.6773 608.031 45.1573 609.3 42.88C610.569 40.5653 612.343 38.7173 614.62 37.336C616.897 35.9173 619.567 35.208 622.628 35.208C625.689 35.208 628.321 35.9173 630.524 37.336C632.764 38.7173 634.5 40.5467 635.732 42.824C636.964 45.1013 637.58 47.5467 637.58 50.16C637.58 50.608 637.561 51.0373 637.524 51.448C637.487 51.8213 637.449 52.1387 637.412 52.4H613.948C614.06 54.1173 614.527 55.6293 615.348 56.936C616.207 58.2053 617.289 59.2133 618.596 59.96C619.903 60.6693 621.303 61.024 622.796 61.024C624.439 61.024 625.988 60.6133 627.444 59.792C628.937 58.9707 629.945 57.888 630.468 56.544L635.732 58.056C635.097 59.4747 634.127 60.7627 632.82 61.92C631.551 63.04 630.039 63.936 628.284 64.608C626.529 65.2427 624.625 65.56 622.572 65.56ZM613.78 48.312H631.476C631.364 46.632 630.879 45.1573 630.02 43.888C629.199 42.5813 628.135 41.5733 626.828 40.864C625.559 40.1173 624.14 39.744 622.572 39.744C621.041 39.744 619.623 40.1173 618.316 40.864C617.047 41.5733 616.001 42.5813 615.18 43.888C614.359 45.1573 613.892 46.632 613.78 48.312ZM658.509 41.032C656.119 41.0693 653.991 41.6107 652.125 42.656C650.295 43.7013 648.989 45.176 648.205 47.08V65H642.045V35.712H647.757V42.264C648.765 40.248 650.09 38.6427 651.733 37.448C653.375 36.216 655.111 35.544 656.941 35.432C657.314 35.432 657.613 35.432 657.837 35.432C658.098 35.432 658.322 35.4507 658.509 35.488V41.032ZM673.925 71.888C674.485 71.9627 675.026 72.0373 675.549 72.112C676.109 72.224 676.557 72.28 676.893 72.28C677.528 72.28 678.069 72.0747 678.517 71.664C679.002 71.2907 679.488 70.5813 679.973 69.536C680.458 68.4907 681.056 66.9787 681.765 65L669.725 35.712H676.165L685.125 58.728L693.077 35.712H699.013L685.741 71.776C685.33 72.8587 684.733 73.848 683.949 74.744C683.165 75.6773 682.194 76.4053 681.037 76.928C679.88 77.4507 678.517 77.712 676.949 77.712C676.501 77.712 676.034 77.6747 675.549 77.6C675.064 77.5253 674.522 77.4133 673.925 77.264V71.888ZM715.27 65.56C712.992 65.56 710.92 65.168 709.054 64.384C707.224 63.5627 705.638 62.4613 704.294 61.08C702.95 59.6613 701.904 58.056 701.158 56.264C700.448 54.4347 700.094 52.4933 700.094 50.44C700.094 47.6773 700.728 45.1573 701.998 42.88C703.267 40.5653 705.04 38.7173 707.318 37.336C709.595 35.9173 712.264 35.208 715.326 35.208C718.387 35.208 721.019 35.9173 723.222 37.336C725.462 38.7173 727.198 40.5467 728.43 42.824C729.662 45.1013 730.278 47.5467 730.278 50.16C730.278 50.608 730.259 51.0373 730.222 51.448C730.184 51.8213 730.147 52.1387 730.11 52.4H706.646C706.758 54.1173 707.224 55.6293 708.046 56.936C708.904 58.2053 709.987 59.2133 711.294 59.96C712.6 60.6693 714 61.024 715.494 61.024C717.136 61.024 718.686 60.6133 720.142 59.792C721.635 58.9707 722.643 57.888 723.166 56.544L728.43 58.056C727.795 59.4747 726.824 60.7627 725.518 61.92C724.248 63.04 722.736 63.936 720.982 64.608C719.227 65.2427 717.323 65.56 715.27 65.56ZM706.478 48.312H724.174C724.062 46.632 723.576 45.1573 722.718 43.888C721.896 42.5813 720.832 41.5733 719.526 40.864C718.256 40.1173 716.838 39.744 715.27 39.744C713.739 39.744 712.32 40.1173 711.014 40.864C709.744 41.5733 708.699 42.5813 707.878 43.888C707.056 45.1573 706.59 46.632 706.478 48.312ZM732.614 56.432C732.614 54.5653 733.137 52.9413 734.182 51.56C735.265 50.1413 736.74 49.0587 738.606 48.312C740.473 47.528 742.638 47.136 745.102 47.136C746.409 47.136 747.734 47.2293 749.078 47.416C750.46 47.6027 751.673 47.9013 752.718 48.312V46.464C752.718 44.4107 752.102 42.8053 750.87 41.648C749.638 40.4907 747.865 39.912 745.55 39.912C743.908 39.912 742.358 40.2107 740.902 40.808C739.446 41.368 737.897 42.1707 736.254 43.216L734.182 39.072C736.124 37.7653 738.065 36.7947 740.006 36.16C741.985 35.5253 744.057 35.208 746.222 35.208C750.142 35.208 753.222 36.2533 755.462 38.344C757.74 40.3973 758.878 43.328 758.878 47.136V58.056C758.878 58.7653 758.99 59.2693 759.214 59.568C759.476 59.8667 759.905 60.0347 760.502 60.072V65C759.942 65.112 759.438 65.1867 758.99 65.224C758.542 65.2613 758.169 65.28 757.87 65.28C756.564 65.28 755.574 64.9627 754.902 64.328C754.23 63.6933 753.838 62.9467 753.726 62.088L753.558 60.408C752.289 62.0507 750.665 63.32 748.686 64.216C746.708 65.112 744.71 65.56 742.694 65.56C740.753 65.56 739.017 65.168 737.486 64.384C735.956 63.5627 734.761 62.4613 733.902 61.08C733.044 59.6987 732.614 58.1493 732.614 56.432ZM751.262 58.224C751.71 57.7387 752.065 57.2533 752.326 56.768C752.588 56.2827 752.718 55.8533 752.718 55.48V52.12C751.673 51.7093 750.572 51.4107 749.414 51.224C748.257 51 747.118 50.888 745.998 50.888C743.758 50.888 741.929 51.336 740.51 52.232C739.129 53.128 738.438 54.36 738.438 55.928C738.438 56.7867 738.662 57.608 739.11 58.392C739.596 59.176 740.268 59.8107 741.126 60.296C742.022 60.7813 743.124 61.024 744.43 61.024C745.774 61.024 747.062 60.7627 748.294 60.24C749.526 59.7173 750.516 59.0453 751.262 58.224ZM782.256 41.032C779.866 41.0693 777.738 41.6107 775.872 42.656C774.042 43.7013 772.736 45.176 771.952 47.08V65H765.792V35.712H771.504V42.264C772.512 40.248 773.837 38.6427 775.48 37.448C777.122 36.216 778.858 35.544 780.688 35.432C781.061 35.432 781.36 35.432 781.584 35.432C781.845 35.432 782.069 35.4507 782.256 35.488V41.032ZM787.353 50.832V24.848H793.513V50.832H787.353ZM787.353 65V57.328H793.513V65H787.353Z" fill="white"/>
</svg>
